# xmcd CD database file
#
# Track frame offsets:
#	150
#	11550
#	27445
#	45338
#	56925
#	69268
#	81603
#	99655
#	109755
#	122320
#	133603
#	146658
#	159360
#	177580
#
# Disc length: 2535 seconds
#
# Revision: 3
# Processed by: cddbd v1.5.2PL0 Copyright (c) Steve Scherf et al.
# Submitted via: CDex 1.51
#
DISCID=be09e50e
DTITLE=John Lee Hooker - The Best
DYEAR=1990
DGENRE=Blues
TTITLE0=Boom Boom
TTITLE1=Dirty Groundhog
TTITLE2=I'm Going Home
TTITLE3=I Love You Honey
TTITLE4=I'm In The Mood
TTITLE5=Crawling Black Spider
TTITLE6=House Rent Boogie
TTITLE7=Dimpless
TTITLE8=Mambo Chillun
TTITLE9=This Is Hip
TTITLE10=I'm So Exited
TTITLE11=Hobo Blues
TTITLE12=Loudella
TTITLE13=She Shot Me Down
EXTD=YEAR: 1990
EXTT0=
EXTT1=
EXTT2=
EXTT3=
EXTT4=
EXTT5=
EXTT6=
EXTT7=
EXTT8=
EXTT9=
EXTT10=
EXTT11=
EXTT12=
EXTT13=
PLAYORDER=
